<svg xmlns="http://www.w3.org/2000/svg" width="1756.207" height="2182.461" viewBox="0 0 1756.207 2182.461">
  <path id="Union_1" data-name="Union 1" d="M54.09,2112.167c-82.623-52.846-155.653-105.693-209.723-39.059-109.416,134.837-303.542-30.82-303.542-30.82s-.235-5.736-.652-16.465c-11.081,5.7-17.331,9.077-17.331,9.077s-1.971-309.258.119-669.727c-1.935-168.36-1.283-334.355,5.062-452.891,4.336-241.132,11.625-457.561,23.7-570.971,22.06-207.3,124.563-196.477,234.647-185.656,76.695,7.538,157.072,15.08,216.494-51.145C73.3,26,142.073,54.036,215.682,82.066c77.613,29.555,160.6,59.109,256.61-36.206,94.624-93.933,189.249-25.313,273.824,43.309,82.623,67.037,155.653,134.075,209.724,49.551,109.416-171.048,303.542,39.1,303.542,39.1s5.519,171.31,10.582,403.617c4.8-1.985,7.4-3.092,7.4-3.092s1.8,222.023.143,489.288c2.283,289.931-.5,569.25-16.157,693.873-3.53,61.985-7.771,114.179-12.864,151.9-22.06,163.412-124.564,154.882-234.647,146.353-76.7-5.943-157.072-11.885-216.493,40.318-70.442,61.884-139.211,39.787-212.821,17.691-77.611-23.3-160.6-46.595-256.609,28.538-30.326,23.985-64.4,36.429-99,36.154C168.237,2182.443,109.034,2147.3,54.09,2112.167Z" transform="translate(478.001 0.001)" fill="#e0bbf5"/>
</svg>