<svg xmlns="http://www.w3.org/2000/svg" width="3117.583" height="1769.611" viewBox="0 0 3117.583 1769.611">
  <path id="Union_1" data-name="Union 1" d="M466.555,1712.615c-146.671-42.85-276.312-85.7-372.3-31.67-194.233,109.33-538.841-24.99-538.841-24.99s-.417-4.651-1.158-13.35c-19.671,4.622-30.766,7.36-30.766,7.36s-3.5-250.757.211-543.036c-3.435-136.512-2.278-271.106,8.986-367.219,7.7-195.518,20.636-371.006,42.067-462.962C-386.08,108.663-204.118,117.436-8.7,126.21c136.147,6.112,278.831,12.228,384.316-41.47,125.046-63.656,247.124-40.925,377.795-18.2,137.777,23.964,285.1,47.928,455.529-29.357C1376.914-38.98,1544.892,16.66,1695.026,72.3c146.671,54.356,276.313,108.712,372.3,40.178,194.233-138.692,538.841,31.7,538.841,31.7s9.8,138.9,18.784,327.266c8.529-1.61,13.137-2.507,13.137-2.507s3.188,180.024.254,396.731c4.052,235.085-.89,461.566-28.682,562.615-6.266,50.26-13.8,92.58-22.835,123.165-39.16,132.5-221.124,125.583-416.541,118.668-136.148-4.818-278.831-9.637-384.314,32.691-125.047,50.177-247.124,32.261-377.795,14.344-137.773-18.89-285.1-37.781-455.527,23.14-53.835,19.448-114.327,29.538-175.75,29.315C669.187,1769.6,564.091,1741.105,466.555,1712.615Z" transform="translate(478.001 0.001)" fill="#e0bbf5"/>
</svg>